<svg width="42" height="43" viewBox="0 0 42 43" fill="none" xmlns="http://www.w3.org/2000/svg">
<g clip-path="url(#clip0_113_735)">
<path d="M21 42.5C32.598 42.5 42 33.098 42 21.5C42 9.90202 32.598 0.5 21 0.5C9.40202 0.5 0 9.90202 0 21.5C0 33.098 9.40202 42.5 21 42.5Z" fill="#FF9900"/>
<path d="M10.5369 26.7705C10.5984 26.6679 10.701 26.6638 10.8404 26.75C14.0233 28.5957 17.4891 29.5226 21.2297 29.5226C23.7276 29.5226 26.1926 29.055 28.6248 28.1281L28.8996 28.005C29.0186 27.9517 29.1047 27.9189 29.158 27.8902C29.3549 27.8123 29.4984 27.8492 29.6174 28.005C29.724 28.1568 29.6953 28.3003 29.5108 28.4234C29.2852 28.5916 28.9858 28.7843 28.6289 28.9976C27.542 29.6498 26.3197 30.1501 24.9662 30.507C23.625 30.8638 22.3002 31.0402 21.0123 31.0402C19.0313 31.0402 17.1527 30.6916 15.3809 30.0025C13.6131 29.3093 12.0381 28.3291 10.6272 27.0699C10.541 27.0042 10.4959 26.9386 10.4959 26.8771C10.4959 26.8361 10.5123 26.7992 10.541 26.7623L10.5369 26.7705ZM16.2873 21.3277C16.2873 20.45 16.5047 19.6953 16.9395 19.0718C17.3742 18.4484 17.9649 17.9767 18.7236 17.6568C19.4209 17.3656 20.2617 17.1523 21.2707 17.0251C21.6111 16.9841 22.1731 16.9349 22.9524 16.8734V16.5494C22.9524 15.7373 22.8621 15.1835 22.6899 14.9087C22.4274 14.5314 22.009 14.3386 21.4307 14.3386H21.2707C20.8524 14.3796 20.4873 14.5109 20.1797 14.7406C19.8721 14.9785 19.6752 15.2902 19.5891 15.7003C19.5358 15.9628 19.4086 16.1064 19.2076 16.1474L17.001 15.8726C16.7836 15.8193 16.677 15.7167 16.677 15.5322C16.677 15.4912 16.6811 15.4542 16.6975 15.4009C16.9149 14.273 17.444 13.4322 18.2889 12.8785C19.142 12.3412 20.1264 12.0253 21.2584 11.9597H21.7301C23.1738 11.9597 24.3182 12.3412 25.1344 13.0876C25.2533 13.2189 25.3723 13.3501 25.4871 13.506C25.5938 13.6496 25.684 13.7808 25.7332 13.8998C25.7988 14.0187 25.8645 14.1869 25.9055 14.4001C25.9588 14.6216 25.9957 14.7693 26.0244 14.8472C26.049 14.9375 26.0777 15.1097 26.0901 15.3845C26.0983 15.6593 26.1065 15.8152 26.1065 15.8685V20.491C26.1065 20.8191 26.1598 21.1226 26.25 21.3974C26.3402 21.6722 26.4346 21.8691 26.5248 21.988L26.9719 22.5787C27.0498 22.6976 27.0908 22.8042 27.0908 22.8945C27.0908 23.0011 27.0375 23.0914 26.935 23.1693C25.885 24.088 25.3067 24.5884 25.2164 24.6664C25.0729 24.7853 24.8883 24.7976 24.6668 24.7074C24.4945 24.5638 24.3387 24.4162 24.2074 24.2726L23.9367 23.9691C23.8834 23.9035 23.7932 23.7845 23.6578 23.6L23.3953 23.2185C22.6858 23.9937 21.9926 24.4777 21.2953 24.6746C20.8647 24.8058 20.3397 24.8714 19.6916 24.8714C18.7195 24.8714 17.9074 24.572 17.2758 23.965C16.6442 23.3621 16.3324 22.5089 16.3324 21.3933L16.2873 21.3277ZM19.5686 20.9421C19.5686 21.4384 19.6916 21.8363 19.9418 22.1357C20.192 22.4351 20.5324 22.5828 20.9549 22.5828C20.9959 22.5828 21.0492 22.5787 21.1272 22.5664C21.2051 22.5541 21.2461 22.5459 21.2707 22.5459C21.808 22.4064 22.2141 22.0619 22.5176 21.5164C22.6611 21.2703 22.7678 21.0078 22.8334 20.7207C22.9113 20.4417 22.9401 20.2039 22.9524 20.0193C22.9647 19.847 22.9647 19.5476 22.9647 19.1416V18.6699C22.2305 18.6699 21.6645 18.7232 21.283 18.8257C20.1674 19.1416 19.6014 19.8511 19.6014 20.9544L19.5727 20.938V20.9421H19.5686ZM27.5912 27.0945C27.6158 27.0412 27.6568 27.0001 27.7061 26.9468C28.0219 26.7335 28.3295 26.5859 28.6248 26.508C29.1047 26.3931 29.5805 26.3152 30.0358 26.2988C30.1588 26.2865 30.2818 26.2988 30.3967 26.3234C30.9668 26.3767 31.3154 26.471 31.4221 26.6105C31.4754 26.6884 31.5 26.8115 31.5 26.9509V27.0822C31.5 27.5292 31.377 28.0543 31.135 28.6572C30.893 29.2601 30.5526 29.7482 30.1219 30.1296C30.0563 30.183 29.9988 30.2076 29.9496 30.2076C29.925 30.2076 29.8963 30.2076 29.8717 30.1953C29.7938 30.1584 29.7774 30.0886 29.8143 29.9861C30.286 28.8828 30.5197 28.1117 30.5197 27.6769C30.5197 27.5457 30.4951 27.439 30.4418 27.3775C30.3147 27.2339 29.9619 27.1519 29.3713 27.1519C29.158 27.1519 28.9037 27.1642 28.6084 27.1929C28.2926 27.2339 27.9973 27.2709 27.7348 27.3119C27.6568 27.3119 27.6035 27.2996 27.5789 27.275C27.5543 27.2503 27.5461 27.2339 27.5625 27.2093C27.5625 27.1929 27.5666 27.1847 27.5789 27.156V27.1027L27.5912 27.0945Z" fill="white"/>
</g>
<defs>
<clipPath id="clip0_113_735">
<rect width="42" height="42" fill="white" transform="translate(0 0.5)"/>
</clipPath>
</defs>
</svg>
