<svg width="40" height="40" viewBox="0 0 40 40" fill="none" xmlns="http://www.w3.org/2000/svg">
<rect width="40" height="40" rx="20" fill="white"/>
<path fill-rule="evenodd" clip-rule="evenodd" d="M26.0124 22.5475C25.961 22.4738 25.9093 22.4016 25.8578 22.3298C25.4392 21.7463 25.0402 21.1902 25.0402 20.0754V15.9195C25.0402 15.775 25.041 15.6315 25.0418 15.4891C25.051 13.8957 25.0593 12.4417 23.9101 11.3294C22.9246 10.3467 21.2876 10 20.0357 10C17.5872 10 14.8558 10.947 14.283 14.0851C14.2223 14.4184 14.4558 14.5929 14.6675 14.642L17.1607 14.9218C17.3941 14.9095 17.5627 14.6715 17.6079 14.4318C17.8217 13.3505 18.695 12.831 19.6762 12.831C20.2054 12.831 20.8063 13.0316 21.1196 13.5238C21.4425 14.0146 21.4374 14.6699 21.4328 15.2558C21.4323 15.3241 21.4317 15.3914 21.4317 15.4574V15.8058C21.2004 15.8326 20.958 15.858 20.7083 15.8842C19.3486 16.0267 17.7732 16.1919 16.5932 16.7283C14.9823 17.4517 13.8511 18.9238 13.8511 21.0876C13.8511 23.8606 15.5344 25.2469 17.7016 25.2469C19.5305 25.2469 20.5314 24.7993 21.9423 23.3077C22.0128 23.4136 22.0762 23.5113 22.1358 23.6033C22.4724 24.1222 22.6921 24.4609 23.4171 25.0864C23.6086 25.1923 23.8618 25.1883 24.0314 25.0289C24.5451 24.5552 25.4779 23.7146 26.0039 23.2576C26.214 23.0786 26.1767 22.7894 26.0124 22.5475ZM20.9505 21.3491C20.5421 22.1015 19.8916 22.5619 19.1689 22.5619C18.1834 22.5619 17.6047 21.7816 17.6047 20.6272C17.6047 18.3547 19.5714 17.9423 21.4312 17.9423C21.4312 18.0782 21.4325 18.2149 21.4337 18.352C21.4428 19.3807 21.4521 20.4299 20.9505 21.3491Z" fill="#1A1A1A"/>
<path d="M29.0873 27.0823C26.6246 28.9867 23.0531 30 19.9773 30C15.6681 30 11.7866 28.3307 8.84948 25.5515C8.61909 25.333 8.82473 25.0346 9.10151 25.2042C12.2708 27.1371 16.1894 28.3006 20.2367 28.3006C22.9672 28.3006 25.9682 27.7073 28.7295 26.479C29.146 26.2944 29.4951 26.7674 29.0873 27.0823Z" fill="#1A1A1A"/>
<path d="M27.2363 25.7559C28.0293 25.6555 29.7974 25.4334 30.1122 25.8556C30.4273 26.2775 29.7654 28.0124 29.4671 28.7943L29.4649 28.8C29.3751 29.0358 29.5681 29.1299 29.7715 28.9512C31.0931 27.7933 31.4346 25.366 31.1638 25.0143C30.8951 24.6674 28.5847 24.367 27.1747 25.4049C26.958 25.5659 26.9951 25.7852 27.2363 25.7559Z" fill="#1A1A1A"/>
</svg>
