<svg width="40" height="41" viewBox="0 0 40 41" fill="none" xmlns="http://www.w3.org/2000/svg">
<rect y="0.833374" width="40" height="40" rx="20" fill="#F8FAFB"/>
<path fill-rule="evenodd" clip-rule="evenodd" d="M26.0124 23.3808C25.961 23.3071 25.9093 23.235 25.8578 23.1632C25.4392 22.5797 25.0402 22.0236 25.0402 20.9088V16.7529C25.0402 16.6084 25.041 16.4649 25.0418 16.3225C25.051 14.7291 25.0593 13.2751 23.9101 12.1628C22.9246 11.1801 21.2876 10.8334 20.0357 10.8334C17.5872 10.8334 14.8558 11.7804 14.283 14.9185C14.2223 15.2518 14.4558 15.4263 14.6675 15.4754L17.1607 15.7552C17.3941 15.7429 17.5627 15.5049 17.6079 15.2652C17.8217 14.1838 18.695 13.6644 19.6762 13.6644C20.2054 13.6644 20.8063 13.865 21.1196 14.3572C21.4425 14.8479 21.4374 15.5032 21.4328 16.0892C21.4323 16.1575 21.4317 16.2248 21.4317 16.2908V16.6392C21.2004 16.666 20.958 16.6914 20.7083 16.7176C19.3486 16.8601 17.7732 17.0253 16.5932 17.5616C14.9823 18.2851 13.8511 19.7572 13.8511 21.921C13.8511 24.694 15.5344 26.0802 17.7016 26.0802C19.5305 26.0802 20.5314 25.6326 21.9423 24.1411C22.0128 24.247 22.0762 24.3447 22.1358 24.4367C22.4724 24.9556 22.6921 25.2943 23.4171 25.9197C23.6086 26.0257 23.8618 26.0217 24.0314 25.8623C24.5451 25.3885 25.4779 24.548 26.0039 24.091C26.214 23.912 26.1767 23.6227 26.0124 23.3808ZM20.9505 22.1824C20.5421 22.9349 19.8916 23.3953 19.1689 23.3953C18.1834 23.3953 17.6047 22.6149 17.6047 21.4606C17.6047 19.1881 19.5714 18.7756 21.4312 18.7756C21.4312 18.9116 21.4325 19.0483 21.4337 19.1854C21.4428 20.2141 21.4521 21.2632 20.9505 22.1824Z" fill="#16192C"/>
<path d="M29.0873 27.9157C26.6246 29.8201 23.0531 30.8334 19.9773 30.8334C15.6681 30.8334 11.7866 29.164 8.84948 26.3849C8.61909 26.1664 8.82473 25.8679 9.10151 26.0376C12.2708 27.9705 16.1894 29.134 20.2367 29.134C22.9672 29.134 25.9682 28.5407 28.7295 27.3124C29.146 27.1277 29.4951 27.6008 29.0873 27.9157Z" fill="#16192C"/>
<path d="M27.2363 26.5893C28.0293 26.4889 29.7974 26.2667 30.1122 26.689C30.4273 27.1109 29.7654 28.8458 29.4671 29.6277L29.4649 29.6334C29.3751 29.8692 29.5681 29.9633 29.7715 29.7846C31.0931 28.6267 31.4346 26.1994 31.1638 25.8477C30.8951 25.5007 28.5847 25.2004 27.1747 26.2383C26.958 26.3992 26.9951 26.6186 27.2363 26.5893Z" fill="#16192C"/>
</svg>
