<svg width="21" height="20" viewBox="0 0 21 20" fill="none" xmlns="http://www.w3.org/2000/svg">
<g clip-path="url(#clip0_293_900)">
<path d="M10.5 20C16.0228 20 20.5 15.5228 20.5 10C20.5 4.47715 16.0228 0 10.5 0C4.97715 0 0.5 4.47715 0.5 10C0.5 15.5228 4.97715 20 10.5 20Z" fill="#FF9900"/>
<path d="M5.51758 12.5098C5.54688 12.4609 5.5957 12.459 5.66211 12.5C7.17773 13.3789 8.82812 13.8203 10.6094 13.8203C11.7988 13.8203 12.9727 13.5977 14.1309 13.1562L14.2617 13.0977C14.3184 13.0723 14.3594 13.0566 14.3848 13.043C14.4785 13.0059 14.5469 13.0234 14.6035 13.0977C14.6543 13.1699 14.6406 13.2383 14.5527 13.2969C14.4453 13.377 14.3027 13.4688 14.1328 13.5703C13.6152 13.8809 13.0332 14.1191 12.3887 14.2891C11.75 14.459 11.1191 14.543 10.5059 14.543C9.5625 14.543 8.66797 14.377 7.82422 14.0488C6.98242 13.7188 6.23242 13.252 5.56055 12.6523C5.51953 12.6211 5.49805 12.5898 5.49805 12.5605C5.49805 12.541 5.50586 12.5234 5.51953 12.5059L5.51758 12.5098ZM8.25586 9.91797C8.25586 9.5 8.35938 9.14062 8.56641 8.84375C8.77344 8.54688 9.05469 8.32227 9.41602 8.16992C9.74805 8.03125 10.1484 7.92969 10.6289 7.86914C10.791 7.84961 11.0586 7.82617 11.4297 7.79688V7.64258C11.4297 7.25586 11.3867 6.99219 11.3047 6.86133C11.1797 6.68164 10.9805 6.58984 10.7051 6.58984H10.6289C10.4297 6.60938 10.2559 6.67188 10.1094 6.78125C9.96289 6.89453 9.86914 7.04297 9.82812 7.23828C9.80273 7.36328 9.74219 7.43164 9.64648 7.45117L8.5957 7.32031C8.49219 7.29492 8.44141 7.24609 8.44141 7.1582C8.44141 7.13867 8.44336 7.12109 8.45117 7.0957C8.55469 6.55859 8.80664 6.1582 9.20898 5.89453C9.61523 5.63867 10.084 5.48828 10.623 5.45703H10.8477C11.5352 5.45703 12.0801 5.63867 12.4688 5.99414C12.5254 6.05664 12.582 6.11914 12.6367 6.19336C12.6875 6.26172 12.7305 6.32422 12.7539 6.38086C12.7852 6.4375 12.8164 6.51758 12.8359 6.61914C12.8613 6.72461 12.8789 6.79492 12.8926 6.83203C12.9043 6.875 12.918 6.95703 12.9238 7.08789C12.9277 7.21875 12.9316 7.29297 12.9316 7.31836V9.51953C12.9316 9.67578 12.957 9.82031 13 9.95117C13.043 10.082 13.0879 10.1758 13.1309 10.2324L13.3437 10.5137C13.3809 10.5703 13.4004 10.6211 13.4004 10.6641C13.4004 10.7148 13.375 10.7578 13.3262 10.7949C12.8262 11.2324 12.5508 11.4707 12.5078 11.5078C12.4395 11.5645 12.3516 11.5703 12.2461 11.5273C12.1641 11.459 12.0898 11.3887 12.0273 11.3203L11.8984 11.1758C11.873 11.1445 11.8301 11.0879 11.7656 11L11.6406 10.8184C11.3027 11.1875 10.9727 11.418 10.6406 11.5117C10.4355 11.5742 10.1855 11.6055 9.87695 11.6055C9.41406 11.6055 9.02734 11.4629 8.72656 11.1738C8.42578 10.8867 8.27734 10.4805 8.27734 9.94922L8.25586 9.91797ZM9.81836 9.73438C9.81836 9.9707 9.87695 10.1602 9.99609 10.3027C10.1152 10.4453 10.2773 10.5156 10.4785 10.5156C10.498 10.5156 10.5234 10.5137 10.5605 10.5078C10.5977 10.502 10.6172 10.498 10.6289 10.498C10.8848 10.4316 11.0781 10.2676 11.2227 10.0078C11.291 9.89063 11.3418 9.76562 11.373 9.62891C11.4102 9.49609 11.4238 9.38281 11.4297 9.29492C11.4355 9.21289 11.4355 9.07031 11.4355 8.87695V8.65234C11.0859 8.65234 10.8164 8.67773 10.6348 8.72656C10.1035 8.87695 9.83398 9.21484 9.83398 9.74023L9.82031 9.73242V9.73438H9.81836ZM13.6387 12.6641C13.6504 12.6387 13.6699 12.6191 13.6934 12.5938C13.8438 12.4922 13.9902 12.4219 14.1309 12.3848C14.3594 12.3301 14.5859 12.293 14.8027 12.2852C14.8613 12.2793 14.9199 12.2852 14.9746 12.2969C15.2461 12.3223 15.4121 12.3672 15.4629 12.4336C15.4883 12.4707 15.5 12.5293 15.5 12.5957V12.6582C15.5 12.8711 15.4414 13.1211 15.3262 13.4082C15.2109 13.6953 15.0488 13.9277 14.8438 14.1094C14.8125 14.1348 14.7852 14.1465 14.7617 14.1465C14.75 14.1465 14.7363 14.1465 14.7246 14.1406C14.6875 14.123 14.6797 14.0898 14.6973 14.041C14.9219 13.5156 15.0332 13.1484 15.0332 12.9414C15.0332 12.8789 15.0215 12.8281 14.9961 12.7988C14.9355 12.7305 14.7676 12.6914 14.4863 12.6914C14.3848 12.6914 14.2637 12.6973 14.123 12.7109C13.9727 12.7305 13.832 12.748 13.707 12.7676C13.6699 12.7676 13.6445 12.7617 13.6328 12.75C13.6211 12.7383 13.6172 12.7305 13.625 12.7188C13.625 12.7109 13.627 12.707 13.6328 12.6934V12.668L13.6387 12.6641Z" fill="white"/>
</g>
<defs>
<clipPath id="clip0_293_900">
<rect width="20" height="20" fill="white" transform="translate(0.5)"/>
</clipPath>
</defs>
</svg>
