<svg width="43" height="42" viewBox="0 0 43 42" fill="none" xmlns="http://www.w3.org/2000/svg">
<g clip-path="url(#clip0_320_1052)">
<path d="M21.5 42C33.098 42 42.5 32.598 42.5 21C42.5 9.40202 33.098 0 21.5 0C9.90202 0 0.5 9.40202 0.5 21C0.5 32.598 9.90202 42 21.5 42Z" fill="#FF9900"/>
<path d="M11.0369 26.2705C11.0984 26.1679 11.2009 26.1638 11.3404 26.25C14.5232 28.0957 17.989 29.0226 21.7296 29.0226C24.2275 29.0226 26.6925 28.555 29.1248 27.6281L29.3996 27.505C29.5185 27.4517 29.6046 27.4189 29.658 27.3902C29.8548 27.3123 29.9984 27.3492 30.1173 27.505C30.224 27.6568 30.1953 27.8003 30.0107 27.9234C29.7851 28.0916 29.4857 28.2843 29.1289 28.4976C28.0419 29.1498 26.8197 29.6501 25.4662 30.007C24.125 30.3638 22.8001 30.5402 21.5123 30.5402C19.5312 30.5402 17.6527 30.1916 15.8808 29.5025C14.113 28.8093 12.538 27.8291 11.1271 26.5699C11.041 26.5042 10.9958 26.4386 10.9958 26.3771C10.9958 26.3361 11.0123 26.2992 11.041 26.2623L11.0369 26.2705ZM16.7873 20.8277C16.7873 19.95 17.0046 19.1953 17.4394 18.5718C17.8742 17.9484 18.4648 17.4767 19.2236 17.1568C19.9208 16.8656 20.7617 16.6523 21.7707 16.5251C22.1111 16.4841 22.673 16.4349 23.4523 16.3734V16.0494C23.4523 15.2373 23.3621 14.6835 23.1898 14.4087C22.9273 14.0314 22.5089 13.8386 21.9306 13.8386H21.7707C21.3523 13.8796 20.9873 14.0109 20.6796 14.2406C20.372 14.4785 20.1751 14.7902 20.089 15.2003C20.0357 15.4628 19.9085 15.6064 19.7076 15.6474L17.5009 15.3726C17.2835 15.3193 17.1769 15.2167 17.1769 15.0322C17.1769 14.9912 17.181 14.9542 17.1974 14.9009C17.4148 13.773 17.9439 12.9322 18.7888 12.3785C19.6419 11.8412 20.6263 11.5253 21.7583 11.4597H22.23C23.6738 11.4597 24.8181 11.8412 25.6343 12.5876C25.7533 12.7189 25.8722 12.8501 25.9871 13.006C26.0937 13.1496 26.1839 13.2808 26.2332 13.3998C26.2988 13.5187 26.3644 13.6869 26.4054 13.9001C26.4587 14.1216 26.4957 14.2693 26.5244 14.3472C26.549 14.4375 26.5777 14.6097 26.59 14.8845C26.5982 15.1593 26.6064 15.3152 26.6064 15.3685V19.991C26.6064 20.3191 26.6597 20.6226 26.75 20.8974C26.8402 21.1722 26.9345 21.3691 27.0248 21.488L27.4718 22.0787C27.5498 22.1976 27.5908 22.3042 27.5908 22.3945C27.5908 22.5011 27.5375 22.5914 27.4349 22.6693C26.3849 23.588 25.8066 24.0884 25.7164 24.1664C25.5728 24.2853 25.3882 24.2976 25.1667 24.2074C24.9945 24.0638 24.8386 23.9162 24.7074 23.7726L24.4367 23.4691C24.3833 23.4035 24.2931 23.2845 24.1578 23.1L23.8953 22.7185C23.1857 23.4937 22.4925 23.9777 21.7953 24.1746C21.3646 24.3058 20.8396 24.3714 20.1916 24.3714C19.2195 24.3714 18.4074 24.072 17.7757 23.465C17.1441 22.8621 16.8324 22.0089 16.8324 20.8933L16.7873 20.8277ZM20.0685 20.4421C20.0685 20.9384 20.1916 21.3363 20.4417 21.6357C20.6919 21.9351 21.0324 22.0828 21.4548 22.0828C21.4958 22.0828 21.5492 22.0787 21.6271 22.0664C21.705 22.0541 21.746 22.0459 21.7707 22.0459C22.308 21.9064 22.714 21.5619 23.0175 21.0164C23.1611 20.7703 23.2677 20.5078 23.3334 20.2207C23.4113 19.9417 23.44 19.7039 23.4523 19.5193C23.4646 19.347 23.4646 19.0476 23.4646 18.6416V18.1699C22.7304 18.1699 22.1644 18.2232 21.783 18.3257C20.6673 18.6416 20.1013 19.3511 20.1013 20.4544L20.0726 20.438V20.4421H20.0685ZM28.0912 26.5945C28.1158 26.5412 28.1568 26.5001 28.206 26.4468C28.5218 26.2335 28.8294 26.0859 29.1248 26.008C29.6046 25.8931 30.0804 25.8152 30.5357 25.7988C30.6587 25.7865 30.7818 25.7988 30.8966 25.8234C31.4667 25.8767 31.8154 25.971 31.922 26.1105C31.9753 26.1884 32 26.3115 32 26.4509V26.5822C32 27.0292 31.8769 27.5543 31.6349 28.1572C31.3929 28.7601 31.0525 29.2482 30.6218 29.6296C30.5562 29.683 30.4988 29.7076 30.4496 29.7076C30.425 29.7076 30.3962 29.7076 30.3716 29.6953C30.2937 29.6584 30.2773 29.5886 30.3142 29.4861C30.7859 28.3828 31.0197 27.6117 31.0197 27.1769C31.0197 27.0457 30.9951 26.939 30.9417 26.8775C30.8146 26.7339 30.4619 26.6519 29.8712 26.6519C29.658 26.6519 29.4037 26.6642 29.1084 26.6929C28.7925 26.7339 28.4972 26.7709 28.2347 26.8119C28.1568 26.8119 28.1035 26.7996 28.0789 26.775C28.0542 26.7503 28.046 26.7339 28.0625 26.7093C28.0625 26.6929 28.0666 26.6847 28.0789 26.656V26.6027L28.0912 26.5945Z" fill="white"/>
</g>
<defs>
<clipPath id="clip0_320_1052">
<rect width="42" height="42" fill="white" transform="translate(0.5)"/>
</clipPath>
</defs>
</svg>
