<svg width="42" height="42" viewBox="0 0 42 42" fill="none" xmlns="http://www.w3.org/2000/svg">
<g clip-path="url(#clip0_113_751)">
<path d="M21 42C32.598 42 42 32.598 42 21C42 9.40202 32.598 0 21 0C9.40202 0 0 9.40202 0 21C0 32.598 9.40202 42 21 42Z" fill="#999999"/>
<path d="M16.7015 29.6174C16.2873 29.3426 15.9222 29.0021 15.6146 28.6125C15.2783 28.2064 14.9707 27.7799 14.6836 27.341C14.015 26.3607 13.49 25.2902 13.125 24.1623C12.6861 22.8498 12.4769 21.5906 12.4769 20.3602C12.4769 18.9861 12.7722 17.7885 13.3547 16.7836C13.7812 15.9961 14.4211 15.3398 15.1922 14.8764C15.9345 14.4129 16.8 14.1586 17.6777 14.1422C17.9853 14.1422 18.3176 14.1873 18.6662 14.2734C18.9205 14.3432 19.224 14.458 19.6013 14.5975C20.0812 14.782 20.3437 14.8928 20.434 14.9215C20.7129 15.0281 20.9508 15.0691 21.1353 15.0691C21.2748 15.0691 21.4758 15.024 21.7013 14.9543C21.8285 14.9092 22.0705 14.8313 22.4109 14.6836C22.7472 14.5605 23.0179 14.458 23.2271 14.376C23.5511 14.2816 23.8629 14.1914 24.1459 14.1504C24.4863 14.0971 24.8267 14.0807 25.1508 14.1053C25.7701 14.1504 26.3402 14.2816 26.8488 14.4744C27.7388 14.8312 28.4607 15.3932 28.998 16.1889C28.7724 16.3283 28.5592 16.4924 28.3623 16.6687C27.9357 17.0461 27.5748 17.4891 27.2877 17.9854C26.9103 18.658 26.7176 19.4209 26.7258 20.1879C26.7381 21.1354 26.9801 21.968 27.4599 22.6898C27.8004 23.2148 28.2515 23.666 28.8011 24.0311C29.0718 24.2156 29.3097 24.3428 29.5353 24.4248C29.4287 24.7529 29.3138 25.0729 29.1826 25.3887C28.8791 26.0941 28.5181 26.7709 28.0875 27.4107C27.7101 27.9604 27.4107 28.3746 27.1851 28.6453C26.8324 29.0637 26.4961 29.3795 26.1515 29.6051C25.7742 29.8553 25.3353 29.9865 24.8801 29.9865C24.5724 29.9988 24.2689 29.9619 23.9777 29.8758C23.7234 29.7938 23.4732 29.6994 23.2271 29.5928C22.9728 29.4738 22.7062 29.3754 22.4355 29.2975C22.1033 29.2113 21.7629 29.1662 21.4183 29.1703C21.0697 29.1703 20.7293 29.2154 20.4052 29.2975C20.1345 29.3754 19.872 29.4697 19.6136 29.5805C19.2445 29.7322 19.0066 29.8348 18.8672 29.8758C18.5842 29.9578 18.2929 30.0111 18.0017 30.0275C17.5465 30.0275 17.124 29.8963 16.7015 29.6338V29.6174ZM22.6939 13.4736C22.0992 13.7689 21.5332 13.8961 20.9672 13.8551C20.881 13.2891 20.9672 12.7107 21.2051 12.075C21.4142 11.5336 21.6931 11.0414 22.0787 10.6066C22.4806 10.1514 22.9605 9.77402 23.506 9.50332C24.0843 9.20801 24.634 9.04805 25.159 9.02344C25.2287 9.61816 25.159 10.2047 24.9416 10.8322C24.7406 11.39 24.4453 11.9068 24.0679 12.3703C23.6865 12.8256 23.2148 13.2029 22.6816 13.4736H22.6939Z" fill="white"/>
</g>
<defs>
<clipPath id="clip0_113_751">
<rect width="42" height="42" fill="white"/>
</clipPath>
</defs>
</svg>
