<svg width="20" height="20" viewBox="0 0 20 20" fill="none" xmlns="http://www.w3.org/2000/svg">
<g clip-path="url(#clip0_293_896)">
<path d="M10 20C15.5228 20 20 15.5228 20 10C20 4.47715 15.5228 0 10 0C4.47715 0 0 4.47715 0 10C0 15.5228 4.47715 20 10 20Z" fill="#999999"/>
<path d="M7.95313 14.1035C7.75586 13.9727 7.58203 13.8105 7.43555 13.625C7.27539 13.4316 7.12891 13.2285 6.99219 13.0195C6.67383 12.5527 6.42383 12.043 6.25 11.5059C6.04102 10.8809 5.94141 10.2812 5.94141 9.69531C5.94141 9.04102 6.08203 8.4707 6.35937 7.99219C6.5625 7.61719 6.86719 7.30469 7.23437 7.08398C7.58789 6.86328 8 6.74219 8.41797 6.73437C8.56445 6.73437 8.72266 6.75586 8.88867 6.79688C9.00977 6.83008 9.1543 6.88477 9.33398 6.95117C9.5625 7.03906 9.6875 7.0918 9.73047 7.10547C9.86328 7.15625 9.97656 7.17578 10.0645 7.17578C10.1309 7.17578 10.2266 7.1543 10.334 7.12109C10.3945 7.09961 10.5098 7.0625 10.6719 6.99219C10.832 6.93359 10.9609 6.88477 11.0605 6.8457C11.2148 6.80078 11.3633 6.75781 11.498 6.73828C11.6602 6.71289 11.8223 6.70508 11.9766 6.7168C12.2715 6.73828 12.543 6.80078 12.7852 6.89258C13.209 7.0625 13.5527 7.33008 13.8086 7.70898C13.7012 7.77539 13.5996 7.85352 13.5059 7.9375C13.3027 8.11719 13.1309 8.32812 12.9941 8.56445C12.8145 8.88477 12.7227 9.24805 12.7266 9.61328C12.7324 10.0645 12.8477 10.4609 13.0762 10.8047C13.2383 11.0547 13.4531 11.2695 13.7148 11.4434C13.8438 11.5313 13.957 11.5918 14.0645 11.6309C14.0137 11.7871 13.959 11.9395 13.8965 12.0898C13.752 12.4258 13.5801 12.748 13.375 13.0527C13.1953 13.3145 13.0527 13.5117 12.9453 13.6406C12.7773 13.8398 12.6172 13.9902 12.4531 14.0977C12.2734 14.2168 12.0645 14.2793 11.8477 14.2793C11.7012 14.2852 11.5566 14.2676 11.418 14.2266C11.2969 14.1875 11.1777 14.1426 11.0605 14.0918C10.9395 14.0352 10.8125 13.9883 10.6836 13.9512C10.5254 13.9102 10.3633 13.8887 10.1992 13.8906C10.0332 13.8906 9.87109 13.9121 9.7168 13.9512C9.58789 13.9883 9.46289 14.0332 9.33984 14.0859C9.16406 14.1582 9.05078 14.207 8.98438 14.2266C8.84961 14.2656 8.71094 14.291 8.57227 14.2988C8.35547 14.2988 8.1543 14.2363 7.95313 14.1113V14.1035ZM10.8066 6.41602C10.5234 6.55664 10.2539 6.61719 9.98438 6.59766C9.94336 6.32812 9.98438 6.05273 10.0977 5.75C10.1973 5.49219 10.3301 5.25781 10.5137 5.05078C10.7051 4.83398 10.9336 4.6543 11.1934 4.52539C11.4688 4.38477 11.7305 4.30859 11.9805 4.29688C12.0137 4.58008 11.9805 4.85938 11.877 5.1582C11.7812 5.42383 11.6406 5.66992 11.4609 5.89063C11.2793 6.10742 11.0547 6.28711 10.8008 6.41602H10.8066Z" fill="white"/>
</g>
<defs>
<clipPath id="clip0_293_896">
<rect width="20" height="20" fill="white"/>
</clipPath>
</defs>
</svg>
