<svg width="112" height="29" viewBox="0 0 112 29" fill="none" xmlns="http://www.w3.org/2000/svg">
<path d="M17.5662 16.3761L15.4907 19.8092L13.6747 20.6675L11.0803 23.886L9.52369 21.4185L6.66988 25.2807L5.89156 22.9204L4.0755 23.886L2 20.6675V29H109.667V2L105.775 2.75099L103.959 3.93112L102.921 2.75099L99.5486 3.28741L95.657 3.93112L91.7655 3.28741L88.9117 3.93112L86.8361 7.04236L85.7984 9.93904L83.7228 7.04236L80.3501 9.93904L79.0529 8.8662L76.9774 10.9046L75.1614 11.8702L73.8642 13.5867L71.7887 13.0503L70.2321 12.6212L68.9349 13.5867L65.3028 13.0503L62.4489 13.5867L60.3734 14.9814L56.7413 18.6291L55.963 17.3417L54.1469 20.6675L52.8498 22.2767L51.0337 21.4185L48.4393 23.4569L46.8827 22.9204L42.4723 23.4569L38.5807 22.9204L36.5052 21.4185L33.6514 21.8476L32.0947 20.6675L31.057 19.0582L28.722 17.6635L25.8682 18.4145L19.1229 17.6635L17.5662 16.3761Z" fill="url(#paint0_linear_2698_120)" fill-opacity="0.2"/>
<path d="M109.667 2L105.775 2.75099L103.959 3.93112L102.921 2.75099L99.5486 3.28741L95.6571 3.93112L91.7655 3.28741L88.9117 3.93112L86.8362 7.04236L85.7984 9.93904L83.7229 7.04236L80.3502 9.93904L79.053 8.8662L76.9775 10.9046L75.1614 11.8702L73.8642 13.5867L71.7887 13.0503L70.2321 12.6211L68.9349 13.5867L65.3028 13.0503L62.449 13.5867L60.3735 14.9814L56.7414 18.6291L55.963 17.3417L54.147 20.6675L52.8498 22.2767L51.0338 21.4185L48.4394 23.4569L46.8828 22.9204L42.4723 23.4569L38.5808 22.9204L36.5053 21.4185L33.6514 21.8476L32.0948 20.6675L31.057 19.0582L28.7221 17.6635L25.8683 18.4145L19.1229 17.6635L17.5663 16.3761L15.4908 19.8092L13.6747 20.6675L11.0804 23.886L9.52375 21.4185L6.66994 25.2807L5.89162 22.9204L4.07556 23.886L2.00006 20.6675" stroke="#00CC70" stroke-width="3" stroke-linecap="round" stroke-linejoin="round"/>
<defs>
<linearGradient id="paint0_linear_2698_120" x1="41.8658" y1="29" x2="41.8658" y2="4.79311" gradientUnits="userSpaceOnUse">
<stop stop-color="#00CC70" stop-opacity="0.25"/>
<stop offset="1" stop-color="#00CC70"/>
</linearGradient>
</defs>
</svg>
