<svg width="107" height="30" viewBox="0 0 107 30" fill="none" xmlns="http://www.w3.org/2000/svg">
<path d="M3.98554 24.1841L2 20.8481H13.1687L10.6867 24.1841L9.19758 21.6265L6.46746 25.6296L5.72288 23.1833L3.98554 24.1841Z" fill="url(#paint0_linear_113_652)" fill-opacity="0.2"/>
<path d="M35.0096 21.6265L32.2795 22.0713L30.7903 20.8481H51.8866L50.6457 22.5161L48.9083 21.6265L46.4264 23.7393L44.9373 23.1833L40.718 23.7393L36.9951 23.1833L35.0096 21.6265Z" fill="url(#paint1_linear_113_652)" fill-opacity="0.2"/>
<path d="M16.8912 16.4004L14.9057 19.9587L13.1683 20.8483H30.79L29.7972 19.1803L27.5635 17.7348L24.8334 18.5132L18.3804 17.7348L16.8912 16.4004Z" fill="url(#paint2_linear_113_652)" fill-opacity="0.2"/>
<path d="M54.3683 18.7355L53.6237 17.4012L51.8863 20.8483H104.999V1.5L101.277 2.27838L99.5392 3.50155L98.5465 2.27838L95.32 2.83437L91.5971 3.50155L87.8742 2.83437L85.1441 3.50155L83.1586 6.72626L82.1658 9.72859L80.1802 6.72626L76.9537 9.72859L75.7128 8.61661L73.7272 10.7294L71.9899 11.7301L70.7489 13.5093L68.7634 12.9533L67.2743 12.5085L66.0333 13.5093L62.5586 12.9533L59.8285 13.5093L57.8429 14.9548L54.3683 18.7355Z" fill="url(#paint3_linear_113_652)" fill-opacity="0.2"/>
<path d="M2 20.8481L3.98554 24.1841L5.72288 23.1833L6.46746 25.6296L9.19758 21.6265L10.6867 24.1841L13.1687 20.8481M51.8866 20.8481L50.6457 22.5161L48.9083 21.6265L46.4264 23.7393L44.9373 23.1833L40.718 23.7393L36.9951 23.1833L35.0096 21.6265L32.2795 22.0713L30.7903 20.8481" stroke="#F23924" stroke-width="3" stroke-linecap="round" stroke-linejoin="round"/>
<path d="M104.999 1.5L101.277 2.27838L99.5392 3.50155L98.5465 2.27838L95.32 2.83437L91.5971 3.50155L87.8742 2.83437L85.1441 3.50155L83.1586 6.72626L82.1658 9.72859L80.1802 6.72626L76.9537 9.72859L75.7128 8.61661L73.7272 10.7294L71.9899 11.7301L70.7489 13.5093L68.7634 12.9533L67.2742 12.5085L66.0333 13.5093L62.5586 12.9533L59.8285 13.5093L57.8429 14.9548L54.3683 18.7356L53.6237 17.4012L51.8863 20.8483M13.1683 20.8483L14.9057 19.9587L16.8912 16.4004L18.3804 17.7348L24.8334 18.5132L27.5635 17.7348L29.7972 19.1803L30.79 20.8483" stroke="#00CC70" stroke-width="3" stroke-linecap="round" stroke-linejoin="round"/>
<defs>
<linearGradient id="paint0_linear_113_652" x1="27.0674" y1="20.8481" x2="27.0642" y2="34.521" gradientUnits="userSpaceOnUse">
<stop stop-color="#F23924" stop-opacity="0.25"/>
<stop offset="1" stop-color="#F23924"/>
</linearGradient>
<linearGradient id="paint1_linear_113_652" x1="27.0674" y1="20.8481" x2="27.0642" y2="34.521" gradientUnits="userSpaceOnUse">
<stop stop-color="#F23924" stop-opacity="0.25"/>
<stop offset="1" stop-color="#F23924"/>
</linearGradient>
<linearGradient id="paint2_linear_113_652" x1="47.1707" y1="20.8483" x2="47.1707" y2="3.50155" gradientUnits="userSpaceOnUse">
<stop stop-color="#00CC70" stop-opacity="0.25"/>
<stop offset="1" stop-color="#00CC70"/>
</linearGradient>
<linearGradient id="paint3_linear_113_652" x1="47.1707" y1="20.8483" x2="47.1707" y2="3.50155" gradientUnits="userSpaceOnUse">
<stop stop-color="#00CC70" stop-opacity="0.25"/>
<stop offset="1" stop-color="#00CC70"/>
</linearGradient>
</defs>
</svg>
