<svg width="166" height="30" viewBox="0 0 166 30" fill="none" xmlns="http://www.w3.org/2000/svg">
<path d="M5.12288 24.1841L2 20.8481H19.5662L15.6626 24.1841L13.3205 21.6265L9.02649 25.6296L7.85541 23.1833L5.12288 24.1841Z" fill="url(#paint0_linear_151_352)" fill-opacity="0.2"/>
<path d="M53.918 21.6265L49.624 22.0713L47.2818 20.8481H80.4625L78.5107 22.5161L75.7782 21.6265L71.8745 23.7393L69.5324 23.1833L62.8963 23.7393L57.0408 23.1833L53.918 21.6265Z" fill="url(#paint1_linear_151_352)" fill-opacity="0.2"/>
<path d="M25.4213 16.4004L22.2984 19.9587L19.5659 20.8483H47.2815L45.7201 19.1803L42.2068 17.7348L37.9129 18.5132L27.7635 17.7348L25.4213 16.4004Z" fill="url(#paint2_linear_151_352)" fill-opacity="0.2"/>
<path d="M84.3658 18.7355L83.1947 17.4012L80.4622 20.8483H163.999V1.5L158.144 2.27838L155.411 3.50155L153.85 2.27838L148.775 2.83437L142.92 3.50155L137.064 2.83437L132.771 3.50155L129.648 6.72626L128.086 9.72859L124.963 6.72626L119.889 9.72859L117.937 8.61661L114.814 10.7294L112.081 11.7301L110.13 13.5093L107.007 12.9533L104.665 12.5085L102.713 13.5093L97.2477 12.9533L92.9537 13.5093L89.8308 14.9548L84.3658 18.7355Z" fill="url(#paint3_linear_151_352)" fill-opacity="0.2"/>
<path d="M2 20.8481L5.12288 24.1841L7.85541 23.1833L9.02649 25.6296L13.3205 21.6265L15.6626 24.1841L19.5662 20.8481M80.4625 20.8481L78.5107 22.5161L75.7782 21.6265L71.8746 23.7393L69.5324 23.1833L62.8963 23.7393L57.0408 23.1833L53.918 21.6265L49.624 22.0713L47.2818 20.8481" stroke="#F23924" stroke-width="3" stroke-linecap="round" stroke-linejoin="round"/>
<path d="M163.999 1.5L158.144 2.27838L155.411 3.50155L153.85 2.27838L148.775 2.83437L142.92 3.50155L137.064 2.83437L132.771 3.50155L129.648 6.72626L128.086 9.72859L124.963 6.72626L119.889 9.72859L117.937 8.61661L114.814 10.7294L112.081 11.7301L110.13 13.5093L107.007 12.9533L104.665 12.5085L102.713 13.5093L97.2477 12.9533L92.9537 13.5093L89.8308 14.9548L84.3658 18.7356L83.1947 17.4012L80.4622 20.8483M19.5659 20.8483L22.2984 19.9587L25.4213 16.4004L27.7635 17.7348L37.9129 18.5132L42.2068 17.7348L45.7201 19.1803L47.2815 20.8483" stroke="#00CC70" stroke-width="3" stroke-linecap="round" stroke-linejoin="round"/>
<defs>
<linearGradient id="paint0_linear_151_352" x1="41.4264" y1="20.8481" x2="41.4243" y2="34.521" gradientUnits="userSpaceOnUse">
<stop stop-color="#F23924" stop-opacity="0.25"/>
<stop offset="1" stop-color="#F23924"/>
</linearGradient>
<linearGradient id="paint1_linear_151_352" x1="41.4264" y1="20.8481" x2="41.4243" y2="34.521" gradientUnits="userSpaceOnUse">
<stop stop-color="#F23924" stop-opacity="0.25"/>
<stop offset="1" stop-color="#F23924"/>
</linearGradient>
<linearGradient id="paint2_linear_151_352" x1="73.0453" y1="20.8483" x2="73.0453" y2="3.50155" gradientUnits="userSpaceOnUse">
<stop stop-color="#00CC70" stop-opacity="0.25"/>
<stop offset="1" stop-color="#00CC70"/>
</linearGradient>
<linearGradient id="paint3_linear_151_352" x1="73.0453" y1="20.8483" x2="73.0453" y2="3.50155" gradientUnits="userSpaceOnUse">
<stop stop-color="#00CC70" stop-opacity="0.25"/>
<stop offset="1" stop-color="#00CC70"/>
</linearGradient>
</defs>
</svg>
