<svg width="139" height="30" viewBox="0 0 139 30" fill="none" xmlns="http://www.w3.org/2000/svg">
<path d="M21.518 16.9086L18.9156 20.4688L16.6385 21.3589L13.3855 24.6966L11.4337 22.1377L7.85542 26.143L6.87951 23.6953L4.60241 24.6966L2 21.3589V30H137V2L132.12 2.7788L129.843 4.00264L128.542 2.7788L124.313 3.33509L119.434 4.00264L114.554 3.33509L110.976 4.00264L108.373 7.22912L107.072 10.2331L104.47 7.22912L100.241 10.2331L98.6144 9.1205L96.012 11.2344L93.7349 12.2357L92.1084 14.0158L89.5059 13.4596L87.5541 13.0145L85.9276 14.0158L81.3734 13.4596L77.7951 14.0158L75.1927 15.4622L70.6385 19.245L69.6626 17.9099L67.3855 21.3589L65.759 23.0277L63.4819 22.1377L60.2289 24.2516L58.2771 23.6953L52.747 24.2516L47.8674 23.6953L45.265 22.1377L41.6867 22.5827L39.7349 21.3589L38.4337 19.69L35.506 18.2436L31.9277 19.0225L23.4698 18.2436L21.518 16.9086Z" fill="url(#paint0_linear_151_443)" fill-opacity="0.2"/>
<path d="M137 2L132.12 2.7788L129.843 4.00264L128.542 2.7788L124.313 3.33509L119.434 4.00264L114.554 3.33509L110.976 4.00264L108.373 7.22912L107.072 10.2331L104.47 7.22912L100.241 10.2331L98.6144 9.1205L96.012 11.2344L93.7348 12.2357L92.1083 14.0158L89.5059 13.4596L87.5541 13.0145L85.9276 14.0158L81.3734 13.4596L77.7951 14.0158L75.1927 15.4622L70.6385 19.245L69.6626 17.9099L67.3855 21.3589L65.759 23.0277L63.4819 22.1377L60.2289 24.2516L58.2771 23.6953L52.747 24.2516L47.8674 23.6953L45.265 22.1377L41.6867 22.5827L39.7349 21.3589L38.4337 19.69L35.506 18.2436L31.9277 19.0224L23.4698 18.2436L21.518 16.9085L18.9156 20.4688L16.6385 21.3589L13.3855 24.6966L11.4337 22.1377L7.85542 26.1429L6.87951 23.6953L4.60241 24.6966L2 21.3589" stroke="#00CC70" stroke-width="3" stroke-linecap="round" stroke-linejoin="round"/>
<defs>
<linearGradient id="paint0_linear_151_443" x1="51.9865" y1="30" x2="51.9865" y2="4.89655" gradientUnits="userSpaceOnUse">
<stop stop-color="#00CC70" stop-opacity="0.25"/>
<stop offset="1" stop-color="#00CC70"/>
</linearGradient>
</defs>
</svg>
