<svg width="112" height="29" viewBox="0 0 112 29" fill="none" xmlns="http://www.w3.org/2000/svg">
<path d="M17.8996 16.3761L15.8241 19.8092L14.008 20.6675L11.4137 23.886L9.85706 21.4185L7.00325 25.2807L6.22494 22.9204L4.40888 23.886L2.33337 20.6675V29H110V2L106.108 2.75099L104.292 3.93112L103.255 2.75099L99.882 3.28741L95.9904 3.93112L92.0989 3.28741L89.245 3.93112L87.1695 7.04236L86.1318 9.93904L84.0562 7.04236L80.6835 9.93904L79.3863 8.8662L77.3108 10.9046L75.4948 11.8702L74.1976 13.5867L72.1221 13.0503L70.5654 12.6212L69.2682 13.5867L65.6361 13.0503L62.7823 13.5867L60.7068 14.9814L57.0747 18.6291L56.2964 17.3417L54.4803 20.6675L53.1832 22.2767L51.3671 21.4185L48.7727 23.4569L47.2161 22.9204L42.8056 23.4569L38.9141 22.9204L36.8386 21.4185L33.9848 21.8476L32.4281 20.6675L31.3904 19.0582L29.0554 17.6635L26.2016 18.4145L19.4562 17.6635L17.8996 16.3761Z" fill="url(#paint0_linear_2698_178)" fill-opacity="0.2"/>
<path d="M110 2L106.109 2.75099L104.293 3.93112L103.255 2.75099L99.8821 3.28741L95.9905 3.93112L92.099 3.28741L89.2451 3.93112L87.1696 7.04236L86.1319 9.93904L84.0563 7.04236L80.6836 9.93904L79.3864 8.8662L77.3109 10.9046L75.4949 11.8702L74.1977 13.5867L72.1222 13.0503L70.5656 12.6211L69.2684 13.5867L65.6362 13.0503L62.7824 13.5867L60.7069 14.9814L57.0748 18.6291L56.2965 17.3417L54.4804 20.6675L53.1833 22.2767L51.3672 21.4185L48.7728 23.4569L47.2162 22.9204L42.8058 23.4569L38.9142 22.9204L36.8387 21.4185L33.9849 21.8476L32.4282 20.6675L31.3905 19.0582L29.0555 17.6635L26.2017 18.4145L19.4563 17.6635L17.8997 16.3761L15.8242 19.8092L14.0082 20.6675L11.4138 23.886L9.85719 21.4185L7.00337 25.2807L6.22506 22.9204L4.409 23.886L2.3335 20.6675" stroke="#00CC70" stroke-width="3" stroke-linecap="round" stroke-linejoin="round"/>
<defs>
<linearGradient id="paint0_linear_2698_178" x1="42.1991" y1="29" x2="42.1991" y2="4.79311" gradientUnits="userSpaceOnUse">
<stop stop-color="#00CC70" stop-opacity="0.25"/>
<stop offset="1" stop-color="#00CC70"/>
</linearGradient>
</defs>
</svg>
