<svg width="111" height="29" viewBox="0 0 111 29" fill="none" xmlns="http://www.w3.org/2000/svg">
<path d="M3.79307 23.8738L1.71857 20.657H13.3876L10.7945 23.8738L9.23864 21.4076L6.3862 25.2677L5.60826 22.9087L3.79307 23.8738Z" fill="url(#paint0_linear_2698_136)" fill-opacity="0.2"/>
<path d="M36.2072 21.4076L33.3547 21.8365L31.7989 20.657H53.8405L52.5439 22.2654L50.7287 21.4076L48.1356 23.4449L46.5797 22.9087L42.1714 23.4449L38.2817 22.9087L36.2072 21.4076Z" fill="url(#paint1_linear_2698_136)" fill-opacity="0.2"/>
<path d="M17.2773 16.3682L15.2028 19.7995L13.3876 20.6573H31.7988L30.7615 19.0489L28.4277 17.655L25.5753 18.4055L18.8331 17.655L17.2773 16.3682Z" fill="url(#paint2_linear_2698_136)" fill-opacity="0.2"/>
<path d="M56.4335 18.62L55.6556 17.3333L53.8404 20.6573H109.333V2L105.444 2.75058L103.628 3.93006L102.591 2.75058L99.2202 3.28671L95.3305 3.93006L91.4408 3.28671L88.5883 3.93006L86.5138 7.03961L85.4766 9.9347L83.4021 7.03961L80.031 9.9347L78.7344 8.86245L76.6599 10.8997L74.8447 11.8648L73.5482 13.5804L71.4737 13.0442L69.9178 12.6153L68.6212 13.5804L64.9909 13.0442L62.1384 13.5804L60.0639 14.9743L56.4335 18.62Z" fill="url(#paint3_linear_2698_136)" fill-opacity="0.2"/>
<line x1="1.66669" y1="20.1208" x2="109.333" y2="20.1208" stroke="#7C7C7C" stroke-dasharray="2 2"/>
<path d="M1.71857 20.657L3.79307 23.8738L5.60826 22.9087L6.3862 25.2677L9.23864 21.4076L10.7945 23.8738L13.3876 20.657M53.8405 20.657L52.5439 22.2654L50.7287 21.4076L48.1356 23.4449L46.5797 22.9087L42.1714 23.4449L38.2817 22.9087L36.2072 21.4076L33.3547 21.8365L31.7989 20.657" stroke="#F23924" stroke-width="3" stroke-linecap="round" stroke-linejoin="round"/>
<path d="M109.333 2L105.444 2.75058L103.628 3.93006L102.591 2.75058L99.2202 3.28671L95.3305 3.93006L91.4408 3.28671L88.5883 3.93006L86.5138 7.03961L85.4766 9.9347L83.4021 7.03961L80.031 9.9347L78.7344 8.86245L76.6599 10.8997L74.8448 11.8648L73.5482 13.5804L71.4737 13.0442L69.9178 12.6153L68.6212 13.5804L64.9909 13.0442L62.1384 13.5804L60.0639 14.9743L56.4335 18.62L55.6556 17.3333L53.8404 20.6573M13.3876 20.6573L15.2028 19.7995L17.2773 16.3682L18.8331 17.655L25.5753 18.4055L28.4277 17.655L30.7615 19.0489L31.7988 20.6573" stroke="#00CC70" stroke-width="3" stroke-linecap="round" stroke-linejoin="round"/>
<defs>
<linearGradient id="paint0_linear_2698_136" x1="27.9092" y1="20.657" x2="27.9063" y2="33.8415" gradientUnits="userSpaceOnUse">
<stop stop-color="#F23924" stop-opacity="0.25"/>
<stop offset="1" stop-color="#F23924"/>
</linearGradient>
<linearGradient id="paint1_linear_2698_136" x1="27.9092" y1="20.657" x2="27.9063" y2="33.8415" gradientUnits="userSpaceOnUse">
<stop stop-color="#F23924" stop-opacity="0.25"/>
<stop offset="1" stop-color="#F23924"/>
</linearGradient>
<linearGradient id="paint2_linear_2698_136" x1="48.9135" y1="20.6573" x2="48.9135" y2="3.93006" gradientUnits="userSpaceOnUse">
<stop stop-color="#00CC70" stop-opacity="0.25"/>
<stop offset="1" stop-color="#00CC70"/>
</linearGradient>
<linearGradient id="paint3_linear_2698_136" x1="48.9135" y1="20.6573" x2="48.9135" y2="3.93006" gradientUnits="userSpaceOnUse">
<stop stop-color="#00CC70" stop-opacity="0.25"/>
<stop offset="1" stop-color="#00CC70"/>
</linearGradient>
</defs>
</svg>
