<svg width="110" height="18" viewBox="0 0 110 18" fill="none" xmlns="http://www.w3.org/2000/svg">
<path d="M2.33345 2L6.15273 2.45161L7.93504 3.16129L8.95351 2.45161L12.2636 2.77419L16.0828 3.16129L19.9021 2.77419L22.7029 3.16129L24.7399 5.03226L25.7584 6.77419L27.7953 5.03226L31.1054 6.77419L32.3785 6.12903L34.4154 7.35484L36.1978 7.93548L37.4709 8.96774L39.5078 8.64516L41.0355 8.3871L42.3086 8.96774L45.8733 8.64516L48.6741 8.96774L50.711 9.80645L54.2757 12L55.0395 11.2258L56.8219 13.2258L58.0949 14.1935L59.8772 13.6774L62.4234 14.9032L63.9511 14.5806L68.2797 14.9032L72.0989 14.5806L74.1359 13.6774L76.9367 13.9355L78.4644 13.2258L79.4829 12.2581L81.7745 11.4194L84.5753 11.871L91.1953 11.4194L92.723 10.6452L94.76 12.7097L96.5423 13.2258L99.0885 15.1613L100.616 13.6774L103.417 16L104.181 14.5806L105.963 15.1613L108 13.2258" stroke="#F23924" stroke-width="3" stroke-linecap="round" stroke-linejoin="round"/>
<path d="M92.723 10.6452L94.76 12.7097L96.5423 13.2258L99.0885 15.1613L100.616 13.6774L103.417 16L104.181 14.5806L105.963 15.1613L108 13.2258V2H2.33345L6.15273 2.45161L7.93504 3.16129L8.95351 2.45161L12.2636 2.77419L16.0828 3.16129L19.9021 2.77419L22.7029 3.16129L24.7399 5.03226L25.7584 6.77419L27.7953 5.03226L31.1054 6.77419L32.3785 6.12903L34.4154 7.35484L36.1978 7.93548L37.4709 8.96774L39.5078 8.64516L41.0355 8.3871L42.3086 8.96774L45.8733 8.64516L48.6741 8.96774L50.711 9.80645L54.2757 12L55.0395 11.2258L56.8219 13.2258L58.0949 14.1935L59.8773 13.6774L62.4234 14.9032L63.9511 14.5806L68.2797 14.9032L72.0989 14.5806L74.1359 13.6774L76.9367 13.9355L78.4644 13.2258L79.4829 12.2581L81.7745 11.4194L84.5753 11.871L91.1953 11.4194L92.723 10.6452Z" fill="url(#paint0_linear_2701_572)" fill-opacity="0.2"/>
<defs>
<linearGradient id="paint0_linear_2701_572" x1="54.9039" y1="2" x2="54.9171" y2="42.0336" gradientUnits="userSpaceOnUse">
<stop stop-color="#F23924" stop-opacity="0.25"/>
<stop offset="1" stop-color="#F23924"/>
</linearGradient>
</defs>
</svg>
