<svg width="109" height="32" viewBox="0 0 109 32" fill="none" xmlns="http://www.w3.org/2000/svg">
<path d="M2 2L5.79518 2.90323L7.56625 4.32258L8.57829 2.90323L11.8675 3.54839L15.6626 4.32258L19.4578 3.54839L22.2409 4.32258L24.2651 8.06452L25.2771 11.5484L27.3012 8.06452L30.5904 11.5484L31.8555 10.2581L33.8796 12.7097L35.6507 13.871L36.9157 15.9355L38.9398 15.2903L40.4579 14.7742L41.7229 15.9355L45.2651 15.2903L48.0482 15.9355L50.0723 17.6129L53.6145 22L54.3735 20.4516L56.1446 24.4516L57.4097 26.3871L59.1807 25.3548L61.7109 27.8065L63.2289 27.1613L67.5301 27.8065L71.3253 27.1613L73.3494 25.3548L76.1325 25.871L77.6506 24.4516L78.6627 22.5161L80.9398 20.8387L83.7229 21.7419L90.3012 20.8387L91.8193 19.2903L93.8434 23.4194L95.6145 24.4516L98.1446 28.3226L99.6627 25.3548L102.446 30L103.205 27.1613L104.976 28.3226L107 24.4516" stroke="#F23924" stroke-width="3" stroke-linecap="round" stroke-linejoin="round"/>
<path d="M91.8193 19.2903L93.8434 23.4194L95.6145 24.4516L98.1446 28.3226L99.6627 25.3548L102.446 30L103.205 27.1613L104.976 28.3226L107 24.4516V2H1.99999L5.79517 2.90323L7.56625 4.32258L8.57829 2.90323L11.8675 3.54839L15.6626 4.32258L19.4578 3.54839L22.241 4.32258L24.2651 8.06452L25.2771 11.5484L27.3012 8.06452L30.5904 11.5484L31.8555 10.2581L33.8796 12.7097L35.6507 13.871L36.9157 15.9355L38.9398 15.2903L40.4579 14.7742L41.7229 15.9355L45.2651 15.2903L48.0482 15.9355L50.0723 17.6129L53.6145 22L54.3735 20.4516L56.1446 24.4516L57.4097 26.3871L59.1807 25.3548L61.7109 27.8065L63.2289 27.1613L67.5301 27.8065L71.3253 27.1613L73.3494 25.3548L76.1325 25.871L77.6506 24.4516L78.6627 22.5161L80.9398 20.8387L83.7229 21.7419L90.3012 20.8387L91.8193 19.2903Z" fill="url(#paint0_linear_113_687)" fill-opacity="0.2"/>
<defs>
<linearGradient id="paint0_linear_113_687" x1="54.2388" y1="2" x2="54.292" y2="82.0671" gradientUnits="userSpaceOnUse">
<stop stop-color="#F23924" stop-opacity="0.25"/>
<stop offset="1" stop-color="#F23924"/>
</linearGradient>
</defs>
</svg>
