<svg width="113" height="30" viewBox="0 0 113 30" fill="none" xmlns="http://www.w3.org/2000/svg">
<path d="M108.899 24.1841L111 20.8481H99.1807L101.807 24.1841L103.383 21.6265L106.272 25.6296L107.06 23.1833L108.899 24.1841Z" fill="url(#paint0_linear_113_722)" fill-opacity="0.2"/>
<path d="M76.0675 21.6265L78.9567 22.0713L80.5326 20.8481H58.2073L59.5206 22.5161L61.3591 21.6265L63.9856 23.7393L65.5615 23.1833L70.0266 23.7393L73.9663 23.1833L76.0675 21.6265Z" fill="url(#paint1_linear_113_722)" fill-opacity="0.2"/>
<path d="M95.2413 16.4004L97.3425 19.9587L99.181 20.8483H80.5329L81.5835 19.1803L83.9473 17.7348L86.8365 18.5132L93.6654 17.7348L95.2413 16.4004Z" fill="url(#paint2_linear_113_722)" fill-opacity="0.2"/>
<path d="M55.5811 18.7355L56.3691 17.4012L58.2076 20.8483H2.0005V1.5L5.94025 2.27838L7.77881 3.50155L8.82941 2.27838L12.2439 2.83437L16.1836 3.50155L20.1234 2.83437L23.0125 3.50155L25.1137 6.72626L26.1643 9.72859L28.2655 6.72626L31.68 9.72859L32.9932 8.61661L35.0944 10.7294L36.933 11.7301L38.2462 13.5093L40.3474 12.9533L41.9233 12.5085L43.2366 13.5093L46.9137 12.9533L49.8028 13.5093L51.904 14.9548L55.5811 18.7355Z" fill="url(#paint3_linear_113_722)" fill-opacity="0.2"/>
<path d="M111 20.8481L108.899 24.1841L107.06 23.1833L106.272 25.6296L103.383 21.6265L101.807 24.1841L99.1807 20.8481M58.2073 20.8481L59.5206 22.5161L61.3591 21.6265L63.9856 23.7393L65.5615 23.1833L70.0266 23.7393L73.9663 23.1833L76.0675 21.6265L78.9567 22.0713L80.5326 20.8481" stroke="#F23924" stroke-width="3" stroke-linecap="round" stroke-linejoin="round"/>
<path d="M2.0005 1.5L5.94025 2.27838L7.77881 3.50155L8.82941 2.27838L12.2439 2.83437L16.1836 3.50155L20.1234 2.83437L23.0125 3.50155L25.1137 6.72626L26.1643 9.72859L28.2655 6.72626L31.68 9.72859L32.9932 8.61661L35.0944 10.7294L36.933 11.7301L38.2462 13.5093L40.3474 12.9533L41.9233 12.5085L43.2366 13.5093L46.9137 12.9533L49.8028 13.5093L51.904 14.9548L55.5811 18.7356L56.3691 17.4012L58.2076 20.8483M99.181 20.8483L97.3425 19.9587L95.2413 16.4004L93.6654 17.7348L86.8365 18.5132L83.9473 17.7348L81.5835 19.1803L80.5329 20.8483" stroke="#00CC70" stroke-width="3" stroke-linecap="round" stroke-linejoin="round"/>
<defs>
<linearGradient id="paint0_linear_113_722" x1="84.4723" y1="20.8481" x2="84.4754" y2="34.521" gradientUnits="userSpaceOnUse">
<stop stop-color="#F23924" stop-opacity="0.25"/>
<stop offset="1" stop-color="#F23924"/>
</linearGradient>
<linearGradient id="paint1_linear_113_722" x1="84.4723" y1="20.8481" x2="84.4754" y2="34.521" gradientUnits="userSpaceOnUse">
<stop stop-color="#F23924" stop-opacity="0.25"/>
<stop offset="1" stop-color="#F23924"/>
</linearGradient>
<linearGradient id="paint2_linear_113_722" x1="63.198" y1="20.8483" x2="63.198" y2="3.50155" gradientUnits="userSpaceOnUse">
<stop stop-color="#00CC70" stop-opacity="0.25"/>
<stop offset="1" stop-color="#00CC70"/>
</linearGradient>
<linearGradient id="paint3_linear_113_722" x1="63.198" y1="20.8483" x2="63.198" y2="3.50155" gradientUnits="userSpaceOnUse">
<stop stop-color="#00CC70" stop-opacity="0.25"/>
<stop offset="1" stop-color="#00CC70"/>
</linearGradient>
</defs>
</svg>
