<svg width="112" height="18" viewBox="0 0 112 18" fill="none" xmlns="http://www.w3.org/2000/svg">
<path d="M2.33345 2L6.22502 2.45161L8.04107 3.16129L9.07882 2.45161L12.4515 2.77419L16.3431 3.16129L20.2346 2.77419L23.0885 3.16129L25.164 5.03226L26.2017 6.77419L28.2773 5.03226L31.65 6.77419L32.9472 6.12903L35.0227 7.35484L36.8387 7.93548L38.1359 8.96774L40.2114 8.64516L41.768 8.3871L43.0652 8.96774L46.6974 8.64516L49.5512 8.96774L51.6267 9.80645L55.2588 12L56.0371 11.2258L57.8532 13.2258L59.1503 14.1935L60.9664 13.6774L63.5608 14.9032L65.1174 14.5806L69.5279 14.9032L73.4194 14.5806L75.4949 13.6774L78.3487 13.9355L79.9054 13.2258L80.9431 12.2581L83.2781 11.4194L86.1319 11.871L92.8773 11.4194L94.4339 10.6452L96.5094 12.7097L98.3255 13.2258L100.92 15.1613L102.476 13.6774L105.33 16L106.109 14.5806L107.925 15.1613L110 13.2258" stroke="#F23924" stroke-width="3" stroke-linecap="round" stroke-linejoin="round"/>
<path d="M94.4339 10.6452L96.5094 12.7097L98.3255 13.2258L100.92 15.1613L102.476 13.6774L105.33 16L106.109 14.5806L107.925 15.1613L110 13.2258V2H2.33346L6.22502 2.45161L8.04107 3.16129L9.07882 2.45161L12.4515 2.77419L16.3431 3.16129L20.2346 2.77419L23.0885 3.16129L25.164 5.03226L26.2017 6.77419L28.2773 5.03226L31.65 6.77419L32.9472 6.12903L35.0227 7.35484L36.8387 7.93548L38.1359 8.96774L40.2114 8.64516L41.768 8.3871L43.0652 8.96774L46.6974 8.64516L49.5512 8.96774L51.6267 9.80645L55.2588 12L56.0371 11.2258L57.8532 13.2258L59.1503 14.1935L60.9664 13.6774L63.5608 14.9032L65.1174 14.5806L69.5279 14.9032L73.4194 14.5806L75.4949 13.6774L78.3487 13.9355L79.9054 13.2258L80.9431 12.2581L83.2781 11.4194L86.1319 11.871L92.8773 11.4194L94.4339 10.6452Z" fill="url(#paint0_linear_2698_61)" fill-opacity="0.2"/>
<defs>
<linearGradient id="paint0_linear_2698_61" x1="55.899" y1="2" x2="55.9119" y2="42.0336" gradientUnits="userSpaceOnUse">
<stop stop-color="#F23924" stop-opacity="0.25"/>
<stop offset="1" stop-color="#F23924"/>
</linearGradient>
</defs>
</svg>
