<svg width="109" height="30" viewBox="0 0 109 30" fill="none" xmlns="http://www.w3.org/2000/svg">
<path d="M104.976 24.6841L107 21.3481H95.6145L98.1446 24.6841L99.6627 22.1265L102.446 26.1296L103.205 23.6833L104.976 24.6841Z" fill="url(#paint0_linear_113_704)" fill-opacity="0.2"/>
<path d="M73.3495 22.1265L76.1326 22.5713L77.6507 21.3481H56.1447L57.4097 23.0161L59.1808 22.1265L61.7109 24.2393L63.229 23.6833L67.5302 24.2393L71.3254 23.6833L73.3495 22.1265Z" fill="url(#paint1_linear_113_704)" fill-opacity="0.2"/>
<path d="M91.8196 16.9004L93.8437 20.4587L95.6147 21.3483H77.6509L78.663 19.6803L80.9401 18.2348L83.7232 19.0132L90.3015 18.2348L91.8196 16.9004Z" fill="url(#paint2_linear_113_704)" fill-opacity="0.2"/>
<path d="M53.6148 19.2355L54.3739 17.9012L56.1449 21.3483H2.00048V2L5.79565 2.77838L7.56673 4.00155L8.57878 2.77838L11.8679 3.33437L15.6631 4.00155L19.4583 3.33437L22.2414 4.00155L24.2655 7.22626L25.2775 10.2286L27.3016 7.22626L30.5908 10.2286L31.8558 9.11661L33.8799 11.2294L35.651 12.2301L36.9161 14.0093L38.9402 13.4533L40.4582 13.0085L41.7233 14.0093L45.2655 13.4533L48.0486 14.0093L50.0727 15.4548L53.6148 19.2355Z" fill="url(#paint3_linear_113_704)" fill-opacity="0.2"/>
<path d="M107 21.3481L104.976 24.6841L103.205 23.6833L102.446 26.1296L99.6627 22.1265L98.1446 24.6841L95.6145 21.3481M56.1447 21.3481L57.4097 23.0161L59.1808 22.1265L61.7109 24.2393L63.229 23.6833L67.5302 24.2393L71.3254 23.6833L73.3495 22.1265L76.1326 22.5713L77.6507 21.3481" stroke="#F23924" stroke-width="3" stroke-linecap="round" stroke-linejoin="round"/>
<path d="M2.00048 2L5.79565 2.77838L7.56674 4.00155L8.57878 2.77838L11.8679 3.33437L15.6631 4.00155L19.4583 3.33437L22.2414 4.00155L24.2655 7.22626L25.2775 10.2286L27.3016 7.22626L30.5908 10.2286L31.8558 9.11661L33.8799 11.2294L35.651 12.2301L36.9161 14.0093L38.9402 13.4533L40.4582 13.0085L41.7233 14.0093L45.2655 13.4533L48.0486 14.0093L50.0727 15.4548L53.6148 19.2356L54.3739 17.9012L56.1449 21.3483M95.6147 21.3483L93.8437 20.4587L91.8196 16.9004L90.3015 18.2348L83.7232 19.0132L80.9401 18.2348L78.663 19.6803L77.6509 21.3483" stroke="#00CC70" stroke-width="3" stroke-linecap="round" stroke-linejoin="round"/>
<defs>
<linearGradient id="paint0_linear_113_704" x1="81.4458" y1="21.3481" x2="81.449" y2="35.021" gradientUnits="userSpaceOnUse">
<stop stop-color="#F23924" stop-opacity="0.25"/>
<stop offset="1" stop-color="#F23924"/>
</linearGradient>
<linearGradient id="paint1_linear_113_704" x1="81.4458" y1="21.3481" x2="81.449" y2="35.021" gradientUnits="userSpaceOnUse">
<stop stop-color="#F23924" stop-opacity="0.25"/>
<stop offset="1" stop-color="#F23924"/>
</linearGradient>
<linearGradient id="paint2_linear_113_704" x1="60.9522" y1="21.3483" x2="60.9522" y2="4.00155" gradientUnits="userSpaceOnUse">
<stop stop-color="#00CC70" stop-opacity="0.25"/>
<stop offset="1" stop-color="#00CC70"/>
</linearGradient>
<linearGradient id="paint3_linear_113_704" x1="60.9522" y1="21.3483" x2="60.9522" y2="4.00155" gradientUnits="userSpaceOnUse">
<stop stop-color="#00CC70" stop-opacity="0.25"/>
<stop offset="1" stop-color="#00CC70"/>
</linearGradient>
</defs>
</svg>
