<svg width="129" height="30" viewBox="0 0 129 30" fill="none" xmlns="http://www.w3.org/2000/svg">
<path d="M20.0722 16.9086L17.6626 20.4688L15.5542 21.3589L12.5422 24.6966L10.7349 22.1377L7.42168 26.143L6.51807 23.6953L4.40964 24.6966L2 21.3589V30H127V2L122.482 2.7788L120.373 4.00264L119.169 2.7788L115.253 3.33509L110.735 4.00264L106.217 3.33509L102.904 4.00264L100.494 7.22912L99.2892 10.2331L96.8795 7.22912L92.9638 10.2331L91.4578 9.1205L89.0481 11.2344L86.9397 12.2357L85.4337 14.0158L83.024 13.4596L81.2168 13.0145L79.7108 14.0158L75.4939 13.4596L72.1807 14.0158L69.771 15.4622L65.5542 19.245L64.6505 17.9099L62.5421 21.3589L61.0361 23.0277L58.9277 22.1377L55.9156 24.2516L54.1084 23.6953L48.9879 24.2516L44.4698 23.6953L42.0602 22.1377L38.747 22.5827L36.9397 21.3589L35.7349 19.69L33.024 18.2436L29.7108 19.0225L21.8795 18.2436L20.0722 16.9086Z" fill="url(#paint0_linear_113_805)" fill-opacity="0.2"/>
<path d="M127 2L122.482 2.7788L120.374 4.00264L119.169 2.7788L115.253 3.33509L110.735 4.00264L106.217 3.33509L102.904 4.00264L100.494 7.22912L99.2893 10.2331L96.8796 7.22912L92.9639 10.2331L91.4579 9.1205L89.0482 11.2344L86.9398 12.2357L85.4338 14.0158L83.0241 13.4596L81.2169 13.0145L79.7109 14.0158L75.494 13.4596L72.1808 14.0158L69.7711 15.4622L65.5543 19.245L64.6507 17.9099L62.5422 21.3589L61.0362 23.0277L58.9278 22.1377L55.9157 24.2516L54.1085 23.6953L48.988 24.2516L44.47 23.6953L42.0603 22.1377L38.7471 22.5827L36.9398 21.3589L35.735 19.69L33.0242 18.2436L29.7109 19.0224L21.8796 18.2436L20.0724 16.9085L17.6627 20.4688L15.5543 21.3589L12.5423 24.6966L10.7351 22.1377L7.42181 26.1429L6.51819 23.6953L4.40976 24.6966L2.00012 21.3589" stroke="#00CC70" stroke-width="3" stroke-linecap="round" stroke-linejoin="round"/>
<defs>
<linearGradient id="paint0_linear_113_805" x1="48.2838" y1="30" x2="48.2838" y2="4.89655" gradientUnits="userSpaceOnUse">
<stop stop-color="#00CC70" stop-opacity="0.25"/>
<stop offset="1" stop-color="#00CC70"/>
</linearGradient>
</defs>
</svg>
