<svg width="163" height="32" viewBox="0 0 163 32" fill="none" xmlns="http://www.w3.org/2000/svg">
<path d="M2 2L7.74699 2.90323L10.4289 4.32258L11.9614 2.90323L16.9421 3.54839L22.6891 4.32258L28.4361 3.54839L32.6506 4.32258L35.7157 8.06452L37.2482 11.5484L40.3133 8.06452L45.2941 11.5484L47.2097 10.2581L50.2748 12.7097L52.9567 13.871L54.8724 15.9355L57.9374 15.2903L60.2362 14.7742L62.1519 15.9355L67.5157 15.2903L71.7302 15.9355L74.7953 17.6129L80.1591 22L81.3085 20.4516L83.9904 24.4516L85.9061 26.3871L88.588 25.3548L92.4193 27.8065L94.7181 27.1613L101.231 27.8065L106.978 27.1613L110.043 25.3548L114.258 25.871L116.557 24.4516L118.089 22.5161L121.537 20.8387L125.752 21.7419L135.713 20.8387L138.012 19.2903L141.077 23.4194L143.759 24.4516L147.59 28.3226L149.889 25.3548L154.104 30L155.253 27.1613L157.935 28.3226L161 24.4516" stroke="#F23924" stroke-width="3" stroke-linecap="round" stroke-linejoin="round"/>
<path d="M138.012 19.2903L141.077 23.4194L143.759 24.4516L147.59 28.3226L149.889 25.3548L154.104 30L155.253 27.1613L157.935 28.3226L161 24.4516V2H2L7.74699 2.90323L10.4289 4.32258L11.9614 2.90323L16.9422 3.54839L22.6891 4.32258L28.4361 3.54839L32.6506 4.32258L35.7157 8.06452L37.2482 11.5484L40.3133 8.06452L45.2941 11.5484L47.2097 10.2581L50.2748 12.7097L52.9567 13.871L54.8724 15.9355L57.9374 15.2903L60.2362 14.7742L62.1519 15.9355L67.5157 15.2903L71.7302 15.9355L74.7953 17.6129L80.1591 22L81.3085 20.4516L83.9904 24.4516L85.9061 26.3871L88.588 25.3548L92.4193 27.8065L94.7181 27.1613L101.231 27.8065L106.978 27.1613L110.043 25.3548L114.258 25.871L116.557 24.4516L118.089 22.5161L121.537 20.8387L125.752 21.7419L135.713 20.8387L138.012 19.2903Z" fill="url(#paint0_linear_151_340)" fill-opacity="0.2"/>
<defs>
<linearGradient id="paint0_linear_151_340" x1="81.1045" y1="2" x2="81.1396" y2="82.0671" gradientUnits="userSpaceOnUse">
<stop stop-color="#F23924" stop-opacity="0.25"/>
<stop offset="1" stop-color="#F23924"/>
</linearGradient>
</defs>
</svg>
