<svg width="287" height="140" viewBox="0 0 287 140" fill="none" xmlns="http://www.w3.org/2000/svg">
<path d="M42.9156 75.4779L37.4601 93.0248L32.6867 97.4115L25.8675 113.862L21.7759 101.25L14.2747 120.99L12.2289 108.927L7.45542 113.862L2 97.4115V140H285V2L274.771 5.8384L269.998 11.8702L267.27 5.8384L258.405 8.58011L248.176 11.8702L237.947 8.58011L230.446 11.8702L224.99 27.7721L222.263 42.5773L216.807 27.7721L207.942 42.5773L204.532 37.0939L199.077 47.5124L194.303 52.4475L190.894 61.221L185.438 58.4792L181.347 56.2859L177.937 61.221L168.39 58.4792L160.889 61.221L155.434 68.3494L145.887 86.993L143.841 80.4129L139.067 97.4115L135.658 105.637L130.884 101.25L124.065 111.668L119.973 108.927L108.381 111.668L98.1517 108.927L92.6963 101.25L85.1951 103.443L81.1035 97.4115L78.3758 89.1864L72.2384 82.058L64.7372 85.8964L47.0071 82.058L42.9156 75.4779Z" fill="url(#paint0_linear_359_426)" fill-opacity="0.2"/>
<path d="M285 2L274.771 5.8384L269.998 11.8702L267.27 5.8384L258.405 8.58011L248.176 11.8702L237.947 8.58011L230.446 11.8702L224.99 27.7721L222.263 42.5773L216.807 27.7721L207.942 42.5773L204.532 37.0939L199.077 47.5124L194.303 52.4475L190.894 61.221L185.438 58.4792L181.347 56.2859L177.937 61.221L168.39 58.4792L160.889 61.221L155.434 68.3494L145.887 86.993L143.841 80.4129L139.067 97.4115L135.658 105.637L130.884 101.25L124.065 111.668L119.973 108.927L108.381 111.668L98.1518 108.927L92.6964 101.25L85.1952 103.443L81.1036 97.4115L78.3758 89.1864L72.2385 82.058L64.7373 85.8964L47.0072 82.058L42.9156 75.4778L37.4602 93.0248L32.6867 97.4115L25.8675 113.862L21.776 101.25L14.2748 120.99L12.229 108.927L7.45548 113.862L2.00006 97.4115" stroke="#00CC70" stroke-width="3" stroke-linecap="round" stroke-linejoin="round"/>
<defs>
<linearGradient id="paint0_linear_359_426" x1="106.786" y1="140" x2="106.786" y2="16.2759" gradientUnits="userSpaceOnUse">
<stop stop-color="#00CC70" stop-opacity="0.25"/>
<stop offset="1" stop-color="#00CC70"/>
</linearGradient>
</defs>
</svg>
