<svg width="113" height="31" viewBox="0 0 113 31" fill="none" xmlns="http://www.w3.org/2000/svg">
<path d="M2 1.5L5.93976 2.40323L7.7783 3.82258L8.8289 2.40323L12.2434 3.04839L16.1831 3.82258L20.1229 3.04839L23.012 3.82258L25.1133 7.56452L26.1639 11.0484L28.2651 7.56452L31.6796 11.0484L32.9928 9.75807L35.094 12.2097L36.9326 13.371L38.2458 15.4355L40.347 14.7903L41.9229 14.2742L43.2362 15.4355L46.9133 14.7903L49.8025 15.4355L51.9037 17.1129L55.5808 21.5L56.3687 19.9516L58.2073 23.9516L59.5205 25.8871L61.3591 24.8548L63.9856 27.3065L65.5615 26.6613L70.0265 27.3065L73.9663 26.6613L76.0675 24.8548L78.9566 25.371L80.5326 23.9516L81.5832 22.0161L83.947 20.3387L86.8362 21.2419L93.6651 20.3387L95.241 18.7903L97.3422 22.9194L99.1808 23.9516L101.807 27.8226L103.383 24.8548L106.272 29.5L107.06 26.6613L108.899 27.8226L111 23.9516" stroke="#F23924" stroke-width="3" stroke-linecap="round" stroke-linejoin="round"/>
<path d="M95.241 18.7903L97.3422 22.9194L99.1808 23.9516L101.807 27.8226L103.383 24.8548L106.272 29.5L107.06 26.6613L108.899 27.8226L111 23.9516V1.5H1.99999L5.93976 2.40323L7.7783 3.82258L8.8289 2.40323L12.2434 3.04839L16.1831 3.82258L20.1229 3.04839L23.012 3.82258L25.1133 7.56452L26.1638 11.0484L28.2651 7.56452L31.6796 11.0484L32.9928 9.75807L35.094 12.2097L36.9326 13.371L38.2458 15.4355L40.347 14.7903L41.9229 14.2742L43.2362 15.4355L46.9133 14.7903L49.8025 15.4355L51.9037 17.1129L55.5808 21.5L56.3687 19.9516L58.2073 23.9516L59.5205 25.8871L61.3591 24.8548L63.9856 27.3065L65.5615 26.6613L70.0265 27.3065L73.9663 26.6613L76.0675 24.8548L78.9566 25.371L80.5326 23.9516L81.5832 22.0161L83.947 20.3387L86.8362 21.2419L93.6651 20.3387L95.241 18.7903Z" fill="url(#paint0_linear_113_740)" fill-opacity="0.2"/>
<defs>
<linearGradient id="paint0_linear_113_740" x1="56.2289" y1="1.5" x2="56.2801" y2="81.5671" gradientUnits="userSpaceOnUse">
<stop stop-color="#F23924" stop-opacity="0.25"/>
<stop offset="1" stop-color="#F23924"/>
</linearGradient>
</defs>
</svg>
