<svg width="20" height="20" viewBox="0 0 20 20" fill="none" xmlns="http://www.w3.org/2000/svg">
<path d="M7.79508 17.5C8.38269 18.0186 9.15456 18.3333 9.99993 18.3333C10.8453 18.3333 11.6172 18.0186 12.2048 17.5M14.9999 6.66663C14.9999 5.34054 14.4732 4.06877 13.5355 3.13109C12.5978 2.19341 11.326 1.66663 9.99993 1.66663C8.67385 1.66663 7.40208 2.19341 6.4644 3.13109C5.52672 4.06877 4.99993 5.34054 4.99993 6.66663C4.99993 9.24178 4.35033 11.0049 3.62465 12.1711C3.01254 13.1549 2.70648 13.6467 2.7177 13.7839C2.73013 13.9359 2.76232 13.9938 2.88475 14.0846C2.99532 14.1666 3.49376 14.1666 4.49065 14.1666H15.5092C16.5061 14.1666 17.0046 14.1666 17.1151 14.0846C17.2376 13.9938 17.2697 13.9359 17.2822 13.7839C17.2934 13.6467 16.9873 13.1549 16.3752 12.1711C15.6495 11.0049 14.9999 9.24178 14.9999 6.66663Z" stroke="#1A1A1A" stroke-width="1.66667" stroke-linecap="round" stroke-linejoin="round"/>
</svg>
