<svg width="17" height="16" viewBox="0 0 17 16" fill="none" xmlns="http://www.w3.org/2000/svg">
<g clip-path="url(#clip0_309_936)">
<path fill-rule="evenodd" clip-rule="evenodd" d="M4.5 0C2.29086 0 0.5 1.79086 0.5 4V12C0.5 14.2091 2.29086 16 4.5 16H12.5C14.7091 16 16.5 14.2091 16.5 12V4C16.5 1.79086 14.7091 0 12.5 0H4.5ZM7.85832 10.9675L12.9711 5.89485C13.2919 5.57405 13.2919 5.0728 12.9711 4.752C12.6503 4.43119 12.149 4.43119 11.8282 4.752L7.25682 9.32342L5.11145 7.35851C4.79065 7.05776 4.2894 7.07781 3.98865 7.39861C3.70794 7.71941 3.72799 8.22067 4.0488 8.52142L6.75556 10.9876C7.07637 11.2883 7.55757 11.2683 7.85832 10.9675Z" fill="#09CA67"/>
</g>
<defs>
<clipPath id="clip0_309_936">
<rect width="16" height="16" fill="white" transform="translate(0.5)"/>
</clipPath>
</defs>
</svg>
