<svg width="28" height="25" viewBox="0 0 28 25" fill="none" xmlns="http://www.w3.org/2000/svg">
<path fill-rule="evenodd" clip-rule="evenodd" d="M8.25 10.5C8.25 10.0858 8.58579 9.75 9 9.75H16.5C16.9142 9.75 17.25 10.0858 17.25 10.5C17.25 10.9142 16.9142 11.25 16.5 11.25H9C8.58579 11.25 8.25 10.9142 8.25 10.5ZM9 14.25H16.5C16.9142 14.25 17.25 13.9142 17.25 13.5C17.25 13.0858 16.9142 12.75 16.5 12.75H9C8.58579 12.75 8.25 13.0858 8.25 13.5C8.25 13.9142 8.58579 14.25 9 14.25ZM21.75 6V17.25C21.75 18.4926 20.7426 19.5 19.5 19.5H3C1.76138 19.5 0.755677 18.4989 0.75 17.2603V8.25C0.75 7.83579 1.08579 7.5 1.5 7.5C1.91421 7.5 2.25 7.83579 2.25 8.25V17.25C2.25 17.6642 2.58579 18 3 18C3.41421 18 3.75 17.6642 3.75 17.25V6C3.75 5.17157 4.42157 4.5 5.25 4.5H20.25C21.0784 4.5 21.75 5.17157 21.75 6ZM20.25 6H5.25V17.25C5.25037 17.5055 5.20693 17.7592 5.12156 18H19.5C19.9142 18 20.25 17.6642 20.25 17.25V6Z" fill="#1A1A1A"/>
</svg>
