<svg width="28" height="25" viewBox="0 0 28 25" fill="none" xmlns="http://www.w3.org/2000/svg">
<g clip-path="url(#clip0_431_526)">
<path d="M22.1668 9.073L15.9449 4.75217C15.3989 4.37291 14.7269 4.16699 14.0351 4.16699C13.3433 4.16699 12.6713 4.37291 12.1253 4.75217L5.90228 9.073C5.5283 9.33267 5.22572 9.66522 5.01766 10.0452C4.8096 10.4253 4.70156 10.8427 4.70178 11.2657V18.7657C4.70178 19.3182 4.94762 19.8482 5.3852 20.2389C5.82278 20.6296 6.41628 20.849 7.03512 20.849H21.0351C21.654 20.849 22.2474 20.6296 22.685 20.2389C23.1226 19.8482 23.3684 19.3182 23.3684 18.7657V11.2657C23.3684 10.4084 22.9251 9.59904 22.1668 9.073Z" stroke="#1A1A1A" stroke-width="1.5" stroke-linecap="round" stroke-linejoin="round"/>
<path d="M18.6667 15.625C16.0884 17.0135 11.9094 17.0135 9.33337 15.625" stroke="#1A1A1A" stroke-width="1.5" stroke-linecap="round" stroke-linejoin="round"/>
</g>
<defs>
<clipPath id="clip0_431_526">
<rect width="28" height="25" fill="white"/>
</clipPath>
</defs>
</svg>
