<svg width="17" height="20" viewBox="0 0 17 20" fill="none" xmlns="http://www.w3.org/2000/svg">
<path d="M6.07767 17.5C6.66528 18.0187 7.43716 18.3334 8.28253 18.3334C9.1279 18.3334 9.89977 18.0187 10.4874 17.5M13.2825 6.66669C13.2825 5.3406 12.7557 4.06884 11.8181 3.13115C10.8804 2.19347 9.60861 1.66669 8.28253 1.66669C6.95645 1.66669 5.68468 2.19347 4.74699 3.13115C3.80931 4.06884 3.28253 5.3406 3.28253 6.66669C3.28253 9.24184 2.63292 11.005 1.90725 12.1712C1.29513 13.1549 0.989075 13.6468 1.0003 13.784C1.01272 13.9359 1.04491 13.9939 1.16734 14.0847C1.27791 14.1667 1.77635 14.1667 2.77324 14.1667H13.7918C14.7887 14.1667 15.2871 14.1667 15.3977 14.0847C15.5201 13.9939 15.5523 13.9359 15.5648 13.784C15.576 13.6468 15.2699 13.1549 14.6578 12.1712C13.9321 11.005 13.2825 9.24184 13.2825 6.66669Z" stroke="#1A202C" stroke-width="1.66667" stroke-linecap="round" stroke-linejoin="round"/>
</svg>
